<svg width="20" height="21" viewBox="0 0 20 21" fill="none" xmlns="http://www.w3.org/2000/svg">
<path fill-rule="evenodd" clip-rule="evenodd" d="M18.5719 9.18501H4.2269L10.4999 2.90901C10.7453 2.67534 10.8841 2.35133 10.8841 2.01251C10.8841 1.67369 10.7453 1.34967 10.4999 1.11601V1.11601C10.2662 0.870648 9.94222 0.731781 9.6034 0.731781C9.26458 0.731781 8.94056 0.870648 8.7069 1.11601L0.383898 9.44101C-0.129268 10.0276 -0.129268 10.9034 0.383898 11.49L8.7089 19.815C8.94256 20.0604 9.26658 20.1992 9.6054 20.1992C9.94422 20.1992 10.2682 20.0604 10.5019 19.815H10.5019C10.7473 19.5813 10.8861 19.2573 10.8861 18.9185C10.8861 18.5797 10.7473 18.2557 10.5019 18.022L4.2269 11.747H18.5719C18.9176 11.768 19.2558 11.6397 19.5007 11.3948C19.7456 11.1499 19.8739 10.8117 19.8529 10.466V10.466C19.8739 10.1203 19.7456 9.78212 19.5007 9.53719C19.2558 9.29226 18.9176 9.16405 18.5719 9.18501V9.18501Z" fill="#377DFF"/>
</svg>
